<svg enable-background="new 0 0 100 100" height="512" viewBox="0 0 100 100" width="512" xmlns="http://www.w3.org/2000/svg"><g fill="#fed35b"><path d="m43.565651 33.809803h11.776501v10.442394h-11.776501z"/><ellipse cx="62.59" cy="26.153" rx="4.015" ry="2.575" transform="matrix(.259 -.966 .966 .259 21.142 79.852)"/><ellipse cx="36.317" cy="26.153" rx="2.575" ry="4.015" transform="matrix(.966 -.259 .259 .966 -5.528 10.281)"/></g><ellipse cx="49.454" cy="23.21" fill="#feda6f" rx="13.137" ry="16.685"/><path d="m60.9211807 6.830842c-5.9833527-3.6507723-5.5730629 4.6130638-5.5730629 4.6130638s-.1227493 6.2630301 5.6490364 11.0523767l.1731262 4.5360947c.0883865.4014702.4442329.687397.8553429.687397.4438515 0 .8179283-.3271618.8696632-.7679596.3101235-2.6457824 3.0531769-17.0535488-1.9741058-20.1209726z" fill="#344d5b"/><path d="m56.7496986 7.2528443s1.3512726 3.6033969-1.8016968 5.0047183c-3.1529732 1.4013205-8.157692 1.6015091-11.2105675 1.651556-3.0528793.0500479-4.8045311 2.5524063-5.9055672 4.6543884-.8209305 1.5672283-.2659264 6.4572239-.1379585 8.1535988.0385361.5108795-.3683128.9437656-.8806458.9437656-.4520454 0-.8301811-.3389244-.8779335-.7884369-.1844749-1.7365475-1.0536766-7.2526207-.6837807-10.0626354.4458313-3.3868685-.0081711-10.8190832 9.1504631-11.8700733 2.2823906-.2619138 4.0915718-2.4823704 5.656002-2.4951415 4.7132036-.0384766 6.5031779 3.0817991 6.6916849 4.80826z" fill="#344d5b"/><path d="m74.9778976 56.7643318c.1662598-7.8766441-8.6402969-10.6897545-8.6402969-10.6897545l-12.1097031-3.5632668h-4.6713256-.0964127-4.6714096l-12.1097031 3.5632668s-8.8064747 2.8131104-8.6402931 10.6897545c.1661797 7.8766975 0 18.0038109 0 18.0038109h25.4214058.0964127 25.4213257c-.0000001 0-.1660996-10.1271133-.0000001-18.0038109z" fill="#fed35b"/><path d="m74.9206314 74.7667999h-50.9357204s.1641769-10.1261597 0-18.0003204c-.1641788-7.8819389 8.6404972-10.6891327 8.6404972-10.6891327l8.0397568-2.3526764c2.2832108 2.189476 5.3782997 3.525589 8.7876549 3.525589 3.4169846 0 6.5315285-1.3607788 8.8148308-3.5502548l8.0323372 2.3635063s8.8500061 2.818882 8.6779099 10.7008209c-.1642763 7.8741646-.0572664 18.0024681-.0572664 18.0024681z" fill="#ededed"/><path d="m81.803688 53.4951744h-63.6073799c-2.5952501 0-4.6034756 2.2742157-4.2822628 4.8495216l3.9986058 32.058014c.2694283 2.1600266 2.1055012 3.7812576 4.2821465 3.7812576h55.6102867c2.1768799 0 4.0128326-1.6212311 4.2822647-3.7812576l3.9986038-32.0580139c.3212127-2.575306-1.6870118-4.8495217-4.2822648-4.8495217z" fill="#344d5b"/><g fill="#293b44"><path d="m50.0000572 68.6689682c-4.180439 0-7.5692749 2.270195-7.5692749 5.0706024 0 2.800415 3.3888359 5.0706024 7.5692749 5.0706024s7.5691605-2.2701874 7.5691605-5.0706024c0-2.8004074-3.3887177-5.0706024-7.5691605-5.0706024z"/><path d="m83.0595703 94.0839691h-66.1192627c-.9587402 0-1.7358398.7771606-1.7358398 1.7359009s.7770996 1.7359009 1.7358398 1.7359009h66.1192627c.9587402 0 1.7359619-.7771606 1.7359619-1.7359009s-.7772217-1.7359009-1.7359619-1.7359009z"/></g></svg>